<?xml version="1.0" standalone="no"?>
<!DOCTYPE svg PUBLIC "-//W3C//DTD SVG 20010904//EN"
 "http://www.w3.org/TR/2001/REC-SVG-20010904/DTD/svg10.dtd">
<svg version="1.0" xmlns="http://www.w3.org/2000/svg"
 width="700.000000pt" height="700.000000pt" viewBox="0 0 700.000000 700.000000"
 preserveAspectRatio="xMidYMid meet">
<metadata>
Created by potrace 1.11, written by Peter Selinger 2001-2013
</metadata>
<g transform="translate(0.000000,700.000000) scale(0.100000,-0.100000)"
fill="#000000" stroke="none">
<path d="M6450 6985 c-25 -8 -54 -19 -65 -24 -11 -6 -96 -42 -190 -81 -93 -39
-184 -77 -200 -85 -29 -13 -84 -36 -95 -40 -7 -2 27 12 -610 -258 -305 -129
-802 -339 -1105 -467 -1224 -516 -1972 -833 -2000 -845 -16 -8 -115 -50 -220
-93 -271 -114 -715 -301 -750 -317 -16 -7 -118 -50 -225 -95 -107 -45 -213
-90 -235 -100 -22 -9 -60 -25 -85 -34 -131 -50 -200 -146 -191 -269 6 -88 18
-102 551 -635 l512 -513 54 -187 c30 -103 80 -275 110 -382 31 -107 77 -269
104 -360 26 -91 78 -268 115 -395 71 -245 86 -275 142 -275 22 0 482 183 628
249 22 10 63 27 91 37 l52 18 751 -751 c568 -569 762 -757 798 -774 57 -28
142 -33 203 -12 54 18 127 75 143 112 6 14 14 28 17 31 3 3 471 1402 1040
3110 1137 3411 1060 3164 1013 3271 -61 136 -217 209 -353 164z"/>
<path d="M789 3162 c-10 -7 -147 -141 -303 -298 -201 -201 -287 -294 -291
-314 -17 -79 68 -147 140 -112 39 19 593 574 605 607 24 63 -31 138 -97 133
-19 -1 -43 -8 -54 -16z"/>
<path d="M1381 1431 c-23 -15 -502 -495 -512 -514 -34 -62 1 -140 67 -147 58
-6 67 1 316 248 137 136 256 259 264 274 17 33 18 59 2 93 -20 45 -98 71 -137
46z"/>
<path d="M2925 988 c-31 -16 -824 -809 -841 -840 -19 -36 -18 -64 3 -99 23
-38 80 -57 120 -40 15 6 213 197 439 424 437 438 437 437 409 504 -21 49 -86
75 -130 51z"/>
</g>
</svg>
